<?xml version="1.0" encoding="UTF-8"?>
<svg xmlns="http://www.w3.org/2000/svg" width="24" height="24" viewBox="0 0 24 24" fill="none">
<path fill-rule="evenodd" clip-rule="evenodd" d="M5 1C2.79086 1 1 2.79086 1 5V19C1 21.2091 2.79086 23 5 23H19C21.2091 23 23 21.2091 23 19V5C23 2.79086 21.2091 1 19 1H5ZM6.64115 7.9842C6.64115 8.98702 7.45621 9.80291 8.45818 9.80291C9.4598 9.80291 10.2747 8.98702 10.2747 7.9842C10.2747 6.98138 9.4598 6.16532 8.45818 6.16532C7.45621 6.16532 6.64115 6.98138 6.64115 7.9842ZM5 7.98403C5 6.0756 6.55134 4.52267 8.45801 4.52267C10.3645 4.52267 11.9157 6.0756 11.9157 7.98403C11.9157 9.89282 10.3645 11.4456 8.45801 11.4456C6.55134 11.4456 5 9.89282 5 7.98403ZM14.1265 8.19944H16.0061C16.6547 8.19944 16.8523 7.60135 16.8523 7.16183C16.8523 6.73516 16.6547 6.12405 16.0061 6.12405H14.1265V8.19944ZM16.0137 4.52421C17.4701 4.52421 18.4856 5.67348 18.4856 7.16184C18.4856 8.65769 17.4177 9.79946 16.0137 9.79946H14.1265L14.1263 11.4398H12.5749V4.52421H16.0137ZM11.6751 15.3233H8.59486V16.5614H10.0065C9.89388 17.1072 9.31992 17.5963 8.4548 17.5963C7.43126 17.5963 6.59839 16.7628 6.59839 15.7383C6.59839 14.7138 7.43126 13.9111 8.4548 13.9111C8.95677 13.9111 9.42773 14.0789 9.78055 14.4405L9.85913 14.5209L9.95233 14.4585L11.0698 13.7129L11.1956 13.6289L11.0983 13.5129C10.4395 12.7293 9.47602 12.2798 8.4548 12.2798C6.54992 12.2798 5 13.8315 5 15.7383C5 17.6454 6.54992 19.1965 8.4548 19.1965C10.1501 19.1965 11.3665 18.2194 11.6282 16.6465C11.6931 16.2576 11.7102 16.0605 11.699 15.7383C11.6922 15.5464 11.6826 15.4094 11.6751 15.3233ZM15.8501 15.3241H18.9305C18.9378 15.4103 18.9474 15.5473 18.9542 15.7392C18.9654 16.0612 18.9485 16.2586 18.8836 16.6473C18.6217 18.2202 17.4055 19.1974 15.7098 19.1974C13.805 19.1974 12.2554 17.6462 12.2554 15.7392C12.2554 13.8322 13.805 12.2807 15.7098 12.2807C16.7312 12.2807 17.6947 12.7302 18.3535 13.5138L18.451 13.6296L18.3252 13.7138L17.2077 14.4594L17.1145 14.5218L17.036 14.4413C16.6828 14.0798 16.2118 13.9118 15.7098 13.9118C14.6865 13.9118 13.8536 14.7144 13.8536 15.7392C13.8536 16.7636 14.6865 17.5973 15.7098 17.5973C16.5751 17.5973 17.1493 17.108 17.2617 16.5622H15.8501V15.3241ZM18.3377 10.2295C17.9512 10.2295 17.6367 10.5443 17.6367 10.9312C17.6367 11.3181 17.9512 11.6328 18.3377 11.6328C18.7244 11.6328 19.0389 11.3181 19.0389 10.9312C19.0389 10.5443 18.7244 10.2295 18.3377 10.2295Z" fill="#5383E8" fill-opacity="0.6"/>
</svg>